<svg width="210" height="628" viewBox="0 0 210 628" fill="none" xmlns="http://www.w3.org/2000/svg">
<path d="M105.089 0.589386C132.804 0.589386 159.384 11.5992 178.982 31.1967C198.58 50.7943 209.589 77.3743 209.589 105.089C209.589 132.804 198.58 159.384 178.982 178.982C159.384 198.58 132.804 209.589 105.089 209.589L105.089 105.089L105.089 0.589386Z" fill="#393F64"/>
<path d="M104.5 419C132.215 419 158.795 430.01 178.393 449.607C197.99 469.205 209 495.785 209 523.5C209 551.215 197.99 577.795 178.393 597.393C158.795 616.99 132.215 628 104.5 628L104.5 523.5L104.5 419Z" fill="#393F64"/>
<path d="M106 419C78.6827 419 52.4843 407.99 33.168 388.393C13.8518 368.795 3.00001 342.215 3.00001 314.5C3.00001 286.785 13.8518 260.205 33.168 240.607C52.4842 221.01 78.6827 210 106 210L106 314.5L106 419Z" fill="white"/>
<circle cx="111" cy="314" r="89" fill="#A6B1E1"/>
</svg>
